<svg width="192" height="162" viewBox="0 0 192 162" fill="none" xmlns="http://www.w3.org/2000/svg">
<path opacity="0.7" d="M98.1846 57.8577H117.118" stroke="#A64CED" stroke-width="113.807" stroke-linecap="round"/>
<path d="M121.055 33.1553C120.084 36.3641 112.988 40.1644 108.625 38.0242" stroke="black" stroke-width="1.54209" stroke-linecap="round" stroke-linejoin="round"/>
<ellipse cx="95.8179" cy="29.8803" rx="2.36669" ry="2.37098" fill="black"/>
<ellipse cx="115.698" cy="26.0866" rx="2.36669" ry="2.37098" fill="black"/>
<path d="M107.741 113.053L97.7647 160.569H64.5623L69.3952 156.49C71.1706 154.992 72.3342 152.893 72.6653 150.594L78.3329 111.222" stroke="black" stroke-width="1.54209" stroke-linecap="round" stroke-linejoin="round"/>
<path d="M107.741 113.053V160.569H140.896L137.075 157.34C134.719 155.348 133.479 152.336 133.75 149.263L137.107 111.222" stroke="black" stroke-width="1.54209" stroke-linecap="round" stroke-linejoin="round"/>
<path d="M21.0122 27.9909C35.508 28.0164 35.0961 37.83 19.2721 34.055C23.9038 35.3501 30.9495 36.8333 28.7904 40.4698C26.6312 44.1063 18.3113 40.2307 18.3113 40.2307C24.1855 43.4401 25.7195 45.8696 23.6927 47.6311C22.8067 48.4011 21.2947 48.7029 19.5386 48.5631M61.2469 46.9284C42.3004 56.051 37.6641 41.8126 36.1792 34.9706C34.6943 28.1287 39.8532 8.46759 33.2711 7.48227C27.9775 6.68985 26.3308 13.4094 26.7445 23.9194C23.8234 22.5538 10.7024 22.5674 7.78577 34.145C5.55573 42.9972 13.8347 48.1091 19.5386 48.5631M57.8938 70.5258C41.2388 74.1368 25.6894 68.5938 19.5386 48.5631" stroke="black" stroke-width="1.54209" stroke-linecap="round" stroke-linejoin="round"/>
<path d="M148.361 71.6497C152.846 74.2972 155.616 74.9397 161.107 74.274C156.318 77.2016 154.166 78.9784 151.656 82.475M157.45 42.0388C167.437 44.9185 187.314 54.2555 186.929 68.5657C186.662 78.5065 179.44 85.4069 172.591 89.4369M154.134 100.686C158.348 103.99 167.9 109.209 172.391 103.649C174.101 101.531 174.007 99.6708 172.984 98.1123M172.591 89.4369C169.58 91.2082 166.641 92.425 164.397 93.1016C167.205 93.8441 171.321 95.5791 172.984 98.1123M172.591 89.4369C177.633 91.2944 176.573 96.8948 172.984 98.1123" stroke="black" stroke-width="1.54209" stroke-linecap="round" stroke-linejoin="round"/>
</svg>
