<svg width="64" height="64" viewBox="0 0 64 64" fill="none" xmlns="http://www.w3.org/2000/svg">
<rect width="64" height="64" rx="32" fill="#954CED"/>
<g clip-path="url(#clip0_1_9054)">
<path d="M26.1175 45.0947C38.2182 45.0947 44.8368 35.0693 44.8368 26.3754C44.8368 26.0907 44.8368 25.8072 44.8175 25.525C46.1051 24.5937 47.2166 23.4405 48.0999 22.1195C46.8992 22.6518 45.6254 23.0008 44.3211 23.1546C45.6946 22.3325 46.7225 21.0393 47.2135 19.5157C45.9221 20.2821 44.5092 20.8222 43.0359 21.1126C42.044 20.0579 40.732 19.3594 39.3032 19.1254C37.8743 18.8914 36.4081 19.1348 35.1315 19.818C33.8549 20.5012 32.8391 21.5861 32.2412 22.9048C31.6433 24.2235 31.4967 25.7025 31.8241 27.1129C29.2085 26.9817 26.6496 26.302 24.3137 25.1178C21.9778 23.9336 19.917 22.2714 18.265 20.2391C17.4237 21.6875 17.1661 23.402 17.5445 25.0337C17.9229 26.6653 18.909 28.0914 20.3019 29.0216C19.2549 28.9909 18.2306 28.7084 17.3159 28.1981V28.2815C17.3163 29.8004 17.8421 31.2725 18.8041 32.4479C19.7662 33.6234 21.1052 34.4299 22.594 34.7307C21.6255 34.9949 20.6092 35.0335 19.6234 34.8436C20.044 36.1507 20.8625 37.2938 21.9645 38.113C23.0666 38.9321 24.397 39.3865 25.7699 39.4124C24.4059 40.4846 22.8438 41.2774 21.1731 41.7453C19.5023 42.2132 17.7557 42.3471 16.0332 42.1394C19.0419 44.0701 22.5426 45.0942 26.1175 45.0895" fill="white"/>
</g>
<defs>
<clipPath id="clip0_1_9054">
<rect width="32.0667" height="32.0667" fill="white" transform="translate(16.0332 16.0333)"/>
</clipPath>
</defs>
</svg>
