<svg width="100" height="100" viewBox="0 0 100 100" fill="none" xmlns="http://www.w3.org/2000/svg">
<path d="M39.4837 17.6725C41.0945 13.3194 47.2514 13.3194 48.8622 17.6725L55.3058 35.0861C55.8122 36.4547 56.8913 37.5337 58.2599 38.0401L75.6734 44.4837C80.0265 46.0945 80.0265 52.2514 75.6734 53.8622L58.2599 60.3058C56.8913 60.8122 55.8122 61.8913 55.3058 63.2599L48.8622 80.6734C47.2514 85.0265 41.0945 85.0265 39.4837 80.6734L33.0401 63.2599C32.5337 61.8913 31.4546 60.8122 30.0861 60.3058L12.6725 53.8622C8.31943 52.2514 8.31944 46.0945 12.6725 44.4837L30.0861 38.0401C31.4547 37.5337 32.5337 36.4546 33.0401 35.0861L39.4837 17.6725Z" stroke="#FFAA4C" stroke-width="10"/>
</svg>
